<svg width="19" height="21" viewBox="0 0 19 21" fill="none" xmlns="http://www.w3.org/2000/svg">
<path d="M18.7438 13.8648C17.9191 12.4463 17.4811 10.4102 17.4811 7.98083C17.4811 5.86418 16.6403 3.83423 15.1436 2.33753C13.6469 0.840835 11.6169 0 9.50027 0C7.38363 0 5.35367 0.840835 3.85697 2.33753C2.36028 3.83423 1.51944 5.86418 1.51944 7.98083C1.51944 10.4112 1.08335 12.4463 0.258661 13.8648C0.0903809 14.1541 0.00117898 14.4826 1.1607e-05 14.8173C-0.00115577 15.152 0.0857525 15.4812 0.252011 15.7716C0.417217 16.0623 0.657004 16.3036 0.946616 16.4706C1.23623 16.6376 1.56517 16.7243 1.89948 16.7217H17.1011C17.4349 16.7238 17.7632 16.6369 18.0523 16.4699C18.3414 16.3029 18.5807 16.0619 18.7457 15.7716C18.9127 15.4816 19.0004 15.1527 19.0001 14.818C18.9997 14.4833 18.9113 14.1545 18.7438 13.8648ZM2.53225 14.4415C3.37309 12.7313 3.79968 10.5594 3.79968 7.98083C3.79968 6.46894 4.40028 5.01897 5.46935 3.9499C6.53841 2.88083 7.98838 2.28024 9.50027 2.28024C11.0122 2.28024 12.4621 2.88083 13.5312 3.9499C14.6003 5.01897 15.2009 6.46894 15.2009 7.98083C15.2009 10.5584 15.6265 12.7313 16.4673 14.4415H2.53225ZM13.6807 19.382C13.6807 19.6844 13.5606 19.9744 13.3468 20.1882C13.133 20.402 12.843 20.5221 12.5406 20.5221H6.45996C6.15758 20.5221 5.86759 20.402 5.65377 20.1882C5.43996 19.9744 5.31984 19.6844 5.31984 19.382C5.31984 19.0796 5.43996 18.7896 5.65377 18.5758C5.86759 18.362 6.15758 18.2419 6.45996 18.2419H12.5406C12.843 18.2419 13.133 18.362 13.3468 18.5758C13.5606 18.7896 13.6807 19.0796 13.6807 19.382Z" fill="black"/>
</svg>
