<svg width="15" height="15" viewBox="0 0 15 15" fill="none" xmlns="http://www.w3.org/2000/svg">
<path d="M6.74999 11.25H8.24999V6.74999H6.74999V11.25ZM7.49999 5.24999C7.71249 5.24999 7.89074 5.17799 8.03474 5.03399C8.17874 4.88999 8.25049 4.712 8.24999 4.5C8.24949 4.288 8.17749 4.11 8.03399 3.966C7.89049 3.822 7.71249 3.75 7.49999 3.75C7.28749 3.75 7.10949 3.822 6.96599 3.966C6.82249 4.11 6.75049 4.288 6.74999 4.5C6.74949 4.712 6.82149 4.89025 6.96599 5.03474C7.11049 5.17924 7.28849 5.25099 7.49999 5.24999ZM7.49999 15C6.46249 15 5.4875 14.803 4.575 14.409C3.6625 14.015 2.86875 13.4807 2.19375 12.8062C1.51875 12.1317 0.9845 11.338 0.591 10.425C0.197501 9.51199 0.000500949 8.53699 9.49366e-07 7.49999C-0.00049905 6.46299 0.196501 5.48799 0.591 4.575C0.9855 3.662 1.51975 2.86825 2.19375 2.19375C2.86775 1.51925 3.6615 0.984999 4.575 0.590999C5.4885 0.197 6.46349 0 7.49999 0C8.53649 0 9.51149 0.197 10.425 0.590999C11.3385 0.984999 12.1322 1.51925 12.8062 2.19375C13.4802 2.86825 14.0147 3.662 14.4097 4.575C14.8047 5.48799 15.0015 6.46299 15 7.49999C14.9985 8.53699 14.8015 9.51199 14.409 10.425C14.0165 11.338 13.4822 12.1317 12.8062 12.8062C12.1302 13.4807 11.3365 14.0152 10.425 14.4097C9.51349 14.8042 8.53849 15.001 7.49999 15ZM7.49999 13.5C9.17499 13.5 10.5937 12.9187 11.7562 11.7562C12.9187 10.5937 13.5 9.17499 13.5 7.49999C13.5 5.82499 12.9187 4.40625 11.7562 3.24375C10.5937 2.08125 9.17499 1.5 7.49999 1.5C5.82499 1.5 4.40625 2.08125 3.24375 3.24375C2.08125 4.40625 1.5 5.82499 1.5 7.49999C1.5 9.17499 2.08125 10.5937 3.24375 11.7562C4.40625 12.9187 5.82499 13.5 7.49999 13.5Z" fill="#999999"/>
</svg>
