<svg width="17" height="17" viewBox="0 0 17 17" fill="none" xmlns="http://www.w3.org/2000/svg">
<path d="M13.2967 2.5C13.6503 2.5 13.9894 2.64048 14.2395 2.89052C14.4895 3.14057 14.63 3.47971 14.63 3.83333V13.1667C14.63 13.5203 14.4895 13.8594 14.2395 14.1095C13.9894 14.3595 13.6503 14.5 13.2967 14.5H3.96334C3.60972 14.5 3.27058 14.3595 3.02053 14.1095C2.77048 13.8594 2.63 13.5203 2.63 13.1667V3.83333C2.63 3.47971 2.77048 3.14057 3.02053 2.89052C3.27058 2.64048 3.60972 2.5 3.96334 2.5H13.2967ZM12.9633 12.8333V9.3C12.9633 8.7236 12.7344 8.1708 12.3268 7.76322C11.9192 7.35564 11.3664 7.12667 10.79 7.12667C10.2233 7.12667 9.56334 7.47333 9.24334 7.99333V7.25333H7.38334V12.8333H9.24334V9.54667C9.24334 9.03333 9.65667 8.61333 10.17 8.61333C10.4175 8.61333 10.6549 8.71167 10.83 8.8867C11.005 9.06173 11.1033 9.29913 11.1033 9.54667V12.8333H12.9633ZM5.21667 6.20667C5.51371 6.20667 5.79859 6.08867 6.00863 5.87863C6.21867 5.66859 6.33667 5.38371 6.33667 5.08667C6.33667 4.46667 5.83667 3.96 5.21667 3.96C4.91786 3.96 4.63129 4.0787 4.42 4.28999C4.20871 4.50128 4.09 4.78786 4.09 5.08667C4.09 5.70667 4.59667 6.20667 5.21667 6.20667ZM6.14334 12.8333V7.25333H4.29667V12.8333H6.14334Z" fill="black"/>
</svg>
