<svg width="209" height="209" viewBox="0 0 209 209" fill="none" xmlns="http://www.w3.org/2000/svg">
<path d="M209 104.5C209 82.4318 202.014 60.93 189.042 43.0764C176.071 25.2229 157.78 11.9341 136.792 5.11459C115.804 -1.70486 93.1959 -1.70486 72.2077 5.11459C51.2196 11.9341 32.9291 25.2229 19.9577 43.0764C6.98634 60.93 0 82.4318 0 104.5C0 126.568 6.98634 148.07 19.9577 165.924C32.9291 183.777 51.2196 197.066 72.2077 203.885C93.1959 210.705 115.804 210.705 136.792 203.885L124.683 166.616C111.565 170.878 97.4349 170.878 84.3173 166.616C71.1997 162.354 59.7682 154.048 51.6611 142.89C43.554 131.731 39.1875 118.293 39.1875 104.5C39.1875 90.7074 43.554 77.2688 51.6611 66.1103C59.7682 54.9518 71.1997 46.6463 84.3173 42.3841C97.4349 38.122 111.565 38.122 124.683 42.3841C137.8 46.6463 149.232 54.9518 157.339 66.1103C165.446 77.2688 169.813 90.7074 169.813 104.5H209Z" fill="#7052E7"/>
</svg>
