<svg width="33" height="33" viewBox="0 0 33 33" fill="none" xmlns="http://www.w3.org/2000/svg">
<path d="M19.8825 20.9985C20.0126 19.9157 20.4151 18.8835 21.0525 17.9985H15.012V14.9985H27.003C28.0373 15.0052 29.0586 15.2316 30 15.66V3.0015C30.0002 2.60728 29.9227 2.21689 29.7719 1.85264C29.6212 1.4884 29.4001 1.15743 29.1213 0.878681C28.8426 0.599926 28.5116 0.378845 28.1474 0.228075C27.7831 0.0773058 27.3927 -0.000195658 26.9985 1.50052e-06H3.003C2.60866 -0.000392893 2.2181 0.076963 1.85368 0.227644C1.48926 0.378326 1.15812 0.599376 0.879211 0.87815C0.600297 1.15692 0.379082 1.48795 0.228218 1.8523C0.0773551 2.21664 -0.000195868 2.60716 1.50164e-06 3.0015V23.9985C-0.000393167 24.393 0.0770123 24.7836 0.227787 25.1482C0.378562 25.5127 0.599747 25.8439 0.87868 26.1228C1.15761 26.4018 1.48882 26.6229 1.85334 26.7737C2.21785 26.9245 2.60853 27.0019 3.003 27.0015H17.9985V25.8C18.0068 25.1787 18.1437 24.5658 18.4005 24H8.9985V21L19.8825 20.9985ZM26.9985 11.9985H15.0075V8.9985H26.9985V11.9985ZM8.9985 2.9985H26.9985V5.9985H8.9985V2.9985ZM5.982 23.9985H2.982V20.9985H5.982V23.9985ZM5.982 5.9985H2.982V2.9985H5.982V5.9985ZM8.9895 8.9985H11.9895V11.9985H8.9895V8.9985ZM8.994 17.9985V14.9985H11.994V17.9985H8.994ZM31.1985 24V21.75C31.0813 20.7182 30.5884 19.7656 29.8137 19.0739C29.0391 18.3823 28.037 18 26.9985 18C25.96 18 24.9579 18.3823 24.1833 19.0739C23.4086 19.7656 22.9157 20.7182 22.7985 21.75V24C22.3315 24.0316 21.8918 24.2314 21.5608 24.5623C21.2299 24.8933 21.0301 25.333 20.9985 25.8V31.05C21.0005 31.5412 21.1864 32.0138 21.5196 32.3748C21.8528 32.7357 22.309 32.9588 22.7985 33H31.0485C31.5397 32.998 32.0123 32.8121 32.3733 32.4789C32.7342 32.1457 32.9573 31.6895 32.9985 31.2V25.95C32.9965 25.4588 32.8106 24.9862 32.4774 24.6252C32.1442 24.2643 31.688 24.0412 31.1985 24ZM29.2485 24H24.7485V21.75C24.7625 21.4722 24.8325 21.2001 24.9544 20.9501C25.0762 20.7001 25.2474 20.4773 25.4576 20.2951C25.6678 20.1129 25.9126 19.9752 26.1775 19.8901C26.4423 19.805 26.7215 19.7744 26.9985 19.8C27.2755 19.7744 27.5547 19.805 27.8195 19.8901C28.0844 19.9752 28.3292 20.1129 28.5394 20.2951C28.7496 20.4773 28.9208 20.7001 29.0426 20.9501C29.1645 21.2001 29.2345 21.4722 29.2485 21.75V24Z" fill="url(#paint0_linear_1_455)"/>
<defs>
<linearGradient id="paint0_linear_1_455" x1="16.4993" y1="-5.05999e-07" x2="33.4785" y2="33.4844" gradientUnits="userSpaceOnUse">
<stop stop-color="#6744F2"/>
<stop offset="1" stop-color="#E8E2FF"/>
</linearGradient>
</defs>
</svg>
