<svg width="41" height="41" viewBox="0 0 41 41" fill="none" xmlns="http://www.w3.org/2000/svg">
<path d="M38.4192 15.8875C37.7237 15.1737 37.0098 14.4232 36.7353 13.7826C36.4607 13.142 36.479 12.1902 36.4607 11.2201C36.4424 9.44464 36.4058 7.41295 34.9964 6.00357C33.5871 4.5942 31.5554 4.55759 29.7799 4.53929C28.8098 4.52098 27.8214 4.50268 27.2174 4.26473C26.6134 4.02679 25.8263 3.27634 25.1125 2.5808C23.8496 1.37277 22.4036 0 20.5 0C18.5964 0 17.1504 1.37277 15.8875 2.5808C15.1737 3.27634 14.4232 3.99018 13.7826 4.26473C13.142 4.53929 12.1902 4.52098 11.2201 4.53929C9.44464 4.55759 7.41295 4.5942 6.00357 6.00357C4.5942 7.41295 4.55759 9.44464 4.53929 11.2201C4.52098 12.1902 4.50268 13.1786 4.26473 13.7826C4.02679 14.3866 3.27634 15.1737 2.5808 15.8875C1.37277 17.1504 0 18.5964 0 20.5C0 22.4036 1.37277 23.8496 2.5808 25.1125C3.27634 25.8263 3.99018 26.5768 4.26473 27.2174C4.53929 27.858 4.52098 28.8098 4.53929 29.7799C4.55759 31.5554 4.5942 33.5871 6.00357 34.9964C7.41295 36.4058 9.44464 36.4424 11.2201 36.4607C12.1902 36.479 13.1786 36.4973 13.7826 36.7353C14.3866 36.9732 15.1737 37.7237 15.8875 38.4192C17.1504 39.6272 18.5964 41 20.5 41C22.4036 41 23.8496 39.6272 25.1125 38.4192C25.8263 37.7237 26.5768 37.0098 27.2174 36.7353C27.858 36.4607 28.8098 36.479 29.7799 36.4607C31.5554 36.4424 33.5871 36.4058 34.9964 34.9964C36.4058 33.5871 36.4424 31.5554 36.4607 29.7799C36.479 28.8098 36.4973 27.8214 36.7353 27.2174C36.9732 26.6134 37.7237 25.8263 38.4192 25.1125C39.6272 23.8496 41 22.4036 41 20.5C41 18.5964 39.6272 17.1504 38.4192 15.8875ZM29.5603 17.1688L18.8344 27.4188C18.5571 27.6796 18.1901 27.8238 17.8094 27.8214C17.4343 27.8229 17.0733 27.6785 16.8027 27.4188L11.4397 22.2938C11.291 22.164 11.17 22.0055 11.0841 21.8277C10.9982 21.65 10.9491 21.4568 10.9397 21.2596C10.9304 21.0624 10.961 20.8654 11.0298 20.6803C11.0986 20.4953 11.204 20.326 11.3399 20.1828C11.4757 20.0396 11.6391 19.9253 11.8202 19.8468C12.0013 19.7683 12.1965 19.7273 12.3939 19.7261C12.5913 19.725 12.7869 19.7637 12.9689 19.8401C13.1509 19.9165 13.3156 20.0289 13.4531 20.1705L17.8094 24.3254L27.5469 15.0455C27.8316 14.7971 28.2013 14.6684 28.5787 14.6863C28.9561 14.7041 29.3121 14.8672 29.572 15.1414C29.832 15.4155 29.976 15.7796 29.9738 16.1574C29.9716 16.5353 29.8234 16.8976 29.5603 17.1688Z" fill="#00AC4F"/>
</svg>
