<svg width="27" height="28" viewBox="0 0 27 28" fill="none" xmlns="http://www.w3.org/2000/svg">
<path fill-rule="evenodd" clip-rule="evenodd" d="M13.3913 28C20.8161 28 26.7826 21.7623 26.7826 14C26.7826 6.23779 20.8161 0 13.3913 0C5.96658 0 0 6.23779 0 14C0 21.7623 5.96658 28 13.3913 28ZM17.0739 16.212C17.0739 14.1742 15.9029 13.4742 13.5595 13.1849C11.8855 12.9485 11.5508 12.4849 11.5508 11.6636C11.5508 10.85 12.1117 10.3258 13.2247 10.3258C14.229 10.3258 14.79 10.6742 15.0652 11.55C15.1248 11.7242 15.2914 11.8378 15.4595 11.8378H16.3463C16.3977 11.8395 16.4489 11.8303 16.4968 11.8107C16.5447 11.7912 16.5883 11.7617 16.625 11.724C16.6617 11.6864 16.6908 11.6414 16.7104 11.5917C16.73 11.542 16.7398 11.4887 16.7392 11.4349V11.3742C16.513 10.0878 15.5086 8.86357 14.229 8.75001V7.46357C14.229 7.22712 14.0609 7.05134 13.7856 7.00001H13.0491C12.8229 7.00001 12.6131 7.17423 12.5551 7.46357V8.75001C10.8812 8.9849 9.76823 10.3242 9.76823 11.7849C9.76823 13.7107 10.8812 14.4636 13.2247 14.7607C14.79 15.0485 15.2929 15.3985 15.2929 16.3349C15.2929 17.2636 14.5043 17.9107 13.4508 17.9107C11.9927 17.9107 11.4927 17.2636 11.3246 16.3878C11.274 16.1607 11.1074 16.0378 10.9392 16.0378H9.98546C9.93405 16.0371 9.88304 16.0474 9.83551 16.0679C9.78798 16.0884 9.74492 16.1187 9.70891 16.1571C9.6729 16.1955 9.64469 16.2411 9.62599 16.2912C9.60729 16.3412 9.59848 16.3947 9.60009 16.4485V16.5107C9.81733 17.9636 10.7131 18.9607 12.5551 19.2485V20.5443C12.5551 20.7807 12.7218 20.9378 12.9985 21H13.802C14.0192 21 14.171 20.8414 14.229 20.5443V19.2485C15.9029 18.9607 17.0739 17.7878 17.0739 16.212ZM7.75655 20.5723C8.56619 21.3471 9.5143 21.9472 10.5464 22.3378C10.7131 22.4607 10.8812 22.6878 10.8812 22.8636V23.6849C10.8812 23.7985 10.8812 23.8607 10.8217 23.912C10.7726 24.1485 10.5464 24.262 10.3202 24.1485C8.29016 23.4718 6.51849 22.1378 5.2613 20.3392C4.00412 18.5407 3.32656 16.3708 3.32656 14.1431C3.32656 11.9155 4.00412 9.7456 5.2613 7.94704C6.51849 6.14848 8.29016 4.81445 10.3202 4.13778C10.3798 4.08489 10.4869 4.08489 10.5464 4.08489C10.7726 4.13778 10.8812 4.31356 10.8812 4.54845V5.36356C10.8812 5.65912 10.7726 5.8349 10.5464 5.94845C9.40521 6.37911 8.36879 7.06737 7.51087 7.96428C6.65296 8.86119 5.99462 9.94471 5.58269 11.1378C5.00691 12.758 4.90605 14.5209 5.29298 16.2013C5.67991 17.8817 6.53709 19.4035 7.75506 20.5723M15.9595 4.37423C16.0101 4.13778 16.2362 4.02423 16.4624 4.13778C17.9967 4.6585 19.3898 5.55522 20.5253 6.75315C21.6607 7.95108 22.5058 9.41549 22.9899 11.0242C24.6638 16.562 21.7594 22.4607 16.4624 24.2107C16.4029 24.262 16.2943 24.262 16.2362 24.262C16.0101 24.2107 15.9015 24.0349 15.9015 23.7985V22.9849C15.9015 22.6878 16.0101 22.5136 16.2362 22.3985C17.377 21.9678 18.413 21.2797 19.2707 20.3831C20.1283 19.4864 20.7865 18.4033 21.1985 17.2107C21.5813 16.1351 21.7566 14.9908 21.714 13.844C21.6715 12.6972 21.412 11.5706 20.9506 10.5292C20.4893 9.48784 19.8351 8.55235 19.0259 7.77679C18.2167 7.00123 17.2686 6.40097 16.2362 6.01068C16.0681 5.88779 15.9015 5.66067 15.9015 5.42423V4.61067C15.9015 4.48778 15.9015 4.43489 15.961 4.37423" fill="#2775CA"/>
</svg>
